<svg width="16" height="15" viewBox="0 0 16 15" fill="none" xmlns="http://www.w3.org/2000/svg">
<path d="M5.71425 5.02378L7.87752 0.857117H8.12241L10.2857 5.02378H5.71425ZM7.38772 14.4285L0.346904 6.21426H7.38772V14.4285ZM8.61221 14.4285V6.21426H15.653L8.61221 14.4285ZM11.6326 5.02378L9.51017 0.857117H12.7143C13.0272 0.857117 13.3096 0.936482 13.5616 1.09521C13.8136 1.25394 14.0141 1.46558 14.1632 1.73013L15.8571 5.02378H11.6326ZM0.142822 5.02378L1.8367 1.73013C1.98636 1.46558 2.18718 1.25394 2.43915 1.09521C2.69112 0.936482 2.9733 0.857117 3.28568 0.857117H6.48976L4.36731 5.02378H0.142822Z" fill="#B9F2FF"/>
</svg>
