<svg width="17" height="10" viewBox="0 0 17 10" fill="none" xmlns="http://www.w3.org/2000/svg">
<path d="M11.3333 5C11.3333 5.54939 11.1672 6.08645 10.8558 6.54325C10.5445 7.00005 10.102 7.35609 9.58427 7.56633C9.06655 7.77658 8.49686 7.83159 7.94724 7.7244C7.39763 7.61722 6.89278 7.35266 6.49653 6.96419C6.10028 6.57571 5.83043 6.08075 5.72111 5.54192C5.61178 5.00308 5.66789 4.44456 5.88234 3.93699C6.09679 3.42942 6.45995 2.99559 6.92588 2.69036C7.39182 2.38514 7.93962 2.22222 8.5 2.22222C9.25145 2.22222 9.97212 2.51488 10.5035 3.03581C11.0348 3.55675 11.3333 4.26329 11.3333 5ZM17 0.555556V9.44444C17 9.59179 16.9403 9.7331 16.834 9.83728C16.7278 9.94147 16.5836 10 16.4333 10H0.566667C0.416377 10 0.272243 9.94147 0.165973 9.83728C0.0597022 9.7331 0 9.59179 0 9.44444V0.555556C0 0.408213 0.0597022 0.266905 0.165973 0.162719C0.272243 0.0585317 0.416377 0 0.566667 0H16.4333C16.5836 0 16.7278 0.0585317 16.834 0.162719C16.9403 0.266905 17 0.408213 17 0.555556ZM15.8667 3.77431C15.2232 3.58778 14.6376 3.24639 14.1631 2.78124C13.6887 2.31608 13.3405 1.74194 13.1502 1.11111H3.84979C3.65954 1.74194 3.31132 2.31608 2.83686 2.78124C2.3624 3.24639 1.77678 3.58778 1.13333 3.77431V6.22569C1.77678 6.41222 2.3624 6.75361 2.83686 7.21876C3.31132 7.68392 3.65954 8.25806 3.84979 8.88889H13.1502C13.3405 8.25806 13.6887 7.68392 14.1631 7.21876C14.6376 6.75361 15.2232 6.41222 15.8667 6.22569V3.77431Z" fill="#364649"/>
</svg>
